<?xml version="1.0"?>
<svg xmlns="http://www.w3.org/2000/svg" xmlns:xlink="http://www.w3.org/1999/xlink" xmlns:svgjs="http://svgjs.com/svgjs" version="1.1" width="512" height="512" x="0" y="0" viewBox="0 0 512 512" style="enable-background:new 0 0 512 512" xml:space="preserve" class=""><g><path xmlns="http://www.w3.org/2000/svg" d="m91 300h120v-150h229.367188c-15.332032-31.84375-46.074219-55.042969-83.410157-59.179688-13.214843-52.558593-61.039062-90.820312-115.957031-90.820312-42.613281 0-82.105469 23.230469-103.433594 60.027344-.511718-.011719-1.039062-.027344-1.566406-.027344-37.472656 0-69.613281 27.628906-74.988281 65.257812-35.949219 12.246094-61.011719 46.230469-61.011719 84.742188 0 49.628906 41.371094 90 91 90zm0 0" fill="#ffffff" data-original="#000000" style="" class=""/><path xmlns="http://www.w3.org/2000/svg" d="m241 300h271v-120h-271zm120-75h90v30h-90zm-60 0h30v30h-30zm0 0" fill="#ffffff" data-original="#000000" style="" class=""/><path xmlns="http://www.w3.org/2000/svg" d="m241 450h271v-120h-271zm120-75h90v30h-90zm-60 0h30v30h-30zm0 0" fill="#ffffff" data-original="#000000" style="" class=""/></g></svg>
