<?xml version="1.0"?>
<svg xmlns="http://www.w3.org/2000/svg" xmlns:xlink="http://www.w3.org/1999/xlink" xmlns:svgjs="http://svgjs.com/svgjs" version="1.1" width="512" height="512" x="0" y="0" viewBox="0 0 512 512" style="enable-background:new 0 0 512 512" xml:space="preserve" class=""><g><g xmlns="http://www.w3.org/2000/svg"><path d="m301.713 446.057h-91.426v35.943h-79.053v30h249.532v-30h-79.053z" fill="#5aac4e" data-original="#000000" style="" class=""/><path d="m0 369.19h512v46.867h-512z" fill="#5aac4e" data-original="#000000" style="" class=""/><path d="m0 0v339.19h512v-339.19zm266.906 50.428 27.287 12.467-49.099 107.467-27.287-12.467zm59.595 157.1v30h-141.001v-30zm-204.72-105.112 58.683-43.961 17.986 24.01-37.284 27.931 37.284 27.931-17.986 24.01-58.683-43.961zm231.802 195.113h-195.166v-30h195.166zm36.636-179.155-58.684 43.961-17.986-24.01 37.284-27.931-37.284-27.931 17.986-24.01 58.684 43.961z" fill="#5aac4e" data-original="#000000" style="" class=""/></g></g></svg>
